<svg id="Слой_1" data-name="Слой 1" xmlns="http://www.w3.org/2000/svg" viewBox="0 0 50 85"><defs><style>.cls-1{fill:#ffecaa;}</style></defs><title>Монтажная область 3</title><path class="cls-1" d="M.56,85c.92,0,1.85,0,2.76-.13a17.28,17.28,0,0,0,7.52-2.8,19.15,19.15,0,0,0,8-11.23,23.42,23.42,0,0,0,.81-5.27,20.27,20.27,0,0,0-.93-7.3,28.78,28.78,0,0,0-2.94-6.34c-1.42-2.29-2.91-4.54-4.39-6.8A66.73,66.73,0,0,1,7.84,39.3a24,24,0,0,1-2-5c-.18-.65-.32-1.32-.5-2.05,0,.16,0,.26,0,.35a27.48,27.48,0,0,0,1.38,9.22A54.9,54.9,0,0,0,9.46,48.6c1,2.14,2.06,4.26,3,6.42a25.16,25.16,0,0,1,2.24,8,18.16,18.16,0,0,1-.17,4.6,23.37,23.37,0,0,1-1.13,4.19,21.81,21.81,0,0,1-4,6.88A21.72,21.72,0,0,1,2,84.24C1.5,84.49,1,84.71.37,85Z"/><path class="cls-1" d="M36.48,56.23a22.09,22.09,0,0,0-1.77-4.34,29.67,29.67,0,0,0-4.37-5.84c-2.2-2.39-4.6-4.58-6.94-6.83a47.93,47.93,0,0,1-4.35-4.55c-.46-.58-.86-1.2-1.3-1.8l-.06,0c.46,1,.89,1.92,1.39,2.86A64.25,64.25,0,0,0,23,41.93c1.93,2.8,3.89,5.57,5.57,8.52a33,33,0,0,1,3.06,7,34.91,34.91,0,0,1,1.44,7.73A22,22,0,0,1,32.54,72a13.89,13.89,0,0,1-2.72,5.54s-.05.1-.1.17l.25,0a7.25,7.25,0,0,0,2.6-1.45,13.17,13.17,0,0,0,3.61-5.28,20.46,20.46,0,0,0,1.43-6.17,18,18,0,0,0-.24-4.92C37.12,58.63,36.83,57.42,36.48,56.23Z"/><path class="cls-1" d="M24.51,52.94a59.64,59.64,0,0,0-5.41-6.87q-2.22-2.51-4.43-5c-.39-.45-.76-.93-1.13-1.39l0,0a1.39,1.39,0,0,0,.06.19,29.14,29.14,0,0,0,2.49,5.34c1.52,2.6,3.1,5.16,4.59,7.78a27.86,27.86,0,0,1,3.67,10,19.61,19.61,0,0,1,.13,3.83,24.27,24.27,0,0,1-.71,4.23,22.52,22.52,0,0,1-3.35,7.46,14.35,14.35,0,0,1-5,4.57l-.67.35.17,0A11.69,11.69,0,0,0,20.77,82a15.3,15.3,0,0,0,7-8.86,19.93,19.93,0,0,0,1-5,22.11,22.11,0,0,0-1.15-8.95A28.23,28.23,0,0,0,24.51,52.94Z"/><path class="cls-1" d="M5,26.89v1.26a.47.47,0,0,0,.1-.26,23.39,23.39,0,0,1,1.33-6.14,21,21,0,0,1,4-6.76A18.85,18.85,0,0,1,15,11.17a17.34,17.34,0,0,1,6.86-2.31,2,2,0,0,1,1.68.43c.83.67,1.69,1.29,2.55,1.92A8.31,8.31,0,0,0,30.68,13a6.94,6.94,0,0,0,1.87-.18c-.29-.11-.59-.18-.89-.27a11.83,11.83,0,0,1-4.92-2.9C25.54,8.46,24.41,7.21,23.27,6a27.27,27.27,0,0,0-4-3.83A10.76,10.76,0,0,0,15.41.28,11.41,11.41,0,0,0,11.17.13,8.41,8.41,0,0,0,8,1.19c-.26.16-.5.36-.76.54a16.71,16.71,0,0,1,7.13,2.95c-1,.05-1.9.07-2.83.17a6,6,0,0,0-2.68.89A11.43,11.43,0,0,1,14,9.16a.11.11,0,0,1,0,.05l-.11.08a18.18,18.18,0,0,0-6.35,6.77,19.27,19.27,0,0,0-2.1,6.11c-.18,1.15-.29,2.31-.4,3.46C5,26.05,5,26.47,5,26.89Z"/><path class="cls-1" d="M42.89,47.17a23.26,23.26,0,0,0-6-7.53,74.12,74.12,0,0,0-6-4.38,55.3,55.3,0,0,1-5.25-3.9c-.3-.26-.59-.54-.89-.82a.23.23,0,0,0,0,.17c.56.83,1.11,1.68,1.7,2.5,1.92,2.64,4.11,5,6.25,7.5A59.94,59.94,0,0,1,38,47.43a18.7,18.7,0,0,1,3.29,9.46,49.91,49.91,0,0,1,0,5.47,15.62,15.62,0,0,1-.93,4.48c-.16.43-.36.84-.54,1.27l0,0c.29-.32.59-.64.87-1a17.12,17.12,0,0,0,4-14.48A19.85,19.85,0,0,0,42.89,47.17Z"/><path class="cls-1" d="M35.56,28.71a.25.25,0,0,1-.35,0c-.63-.4-1.27-.8-1.92-1.17A19.43,19.43,0,0,0,25.64,25a10.47,10.47,0,0,0-4.58.52,13.66,13.66,0,0,0-5.34,3.63,20.82,20.82,0,0,0-4,6.3c-.26.62-.49,1.26-.73,1.89l.06,0,.12-.23a24.52,24.52,0,0,1,3.67-5.8,15,15,0,0,1,5.39-3.93,9.93,9.93,0,0,1,7.14-.17,17.8,17.8,0,0,1,5.08,2.68c.94.7,1.83,1.45,2.76,2.19,2.41-1.17,3.53-5.48,2.16-7.83a17.73,17.73,0,0,1-.2,1.82A4.45,4.45,0,0,1,35.56,28.71Z"/><path class="cls-1" d="M36.76,33.31c1.72,1.31,3.45,2.6,5,4.08A19.87,19.87,0,0,1,46,42.74a22.24,22.24,0,0,1,2.24,9.34c0,.87,0,1.75,0,2.63h0a.41.41,0,0,0,0-.09,32.48,32.48,0,0,0,1.22-5.68,14,14,0,0,0-.27-5.07A11.65,11.65,0,0,0,46.58,39a19.08,19.08,0,0,0-8.64-5.5c-.41-.13-.84-.2-1.26-.3A.16.16,0,0,0,36.76,33.31Z"/><path class="cls-1" d="M20,10.08a7.1,7.1,0,0,0-3.71,7.07A5.55,5.55,0,0,0,18,20.62a5.11,5.11,0,0,0,5.52,1,6,6,0,0,0,2.05-1.28c-.57.14-1.12.31-1.68.39A5.12,5.12,0,0,1,18.23,17a6.81,6.81,0,0,1,.94-5.87C19.41,10.77,19.7,10.44,20,10.08Z"/><path class="cls-1" d="M14.56,28.94l.07,0,.18-.2A13.93,13.93,0,0,1,19.54,25a12.33,12.33,0,0,1,7.26-.94,17,17,0,0,1,5.37,1.77c1,.52,2,1.07,3,1.62a2.77,2.77,0,0,0,1.33-2.23l-.83.9-.35-.25L35,25.69a18.17,18.17,0,0,0-10.29-2.62A11.64,11.64,0,0,0,16,27.21C15.48,27.76,15,28.36,14.56,28.94Z"/><path class="cls-1" d="M34,14.05c.24.66.52,1.26.75,1.89a7.07,7.07,0,0,1,.49,3.47c0,.17,0,.31-.29.32-.68,0-1.37.09-2,.18a5.53,5.53,0,0,0-1,.28v.07a3.42,3.42,0,0,1,2.7,1.33,3,3,0,0,1,.19,3l.07.05a12.33,12.33,0,0,0,1-.8,5.24,5.24,0,0,0,1.23-5.08A7.61,7.61,0,0,0,35,15C34.71,14.67,34.34,14.37,34,14.05Z"/><path class="cls-1" d="M29.31,5.56a.78.78,0,0,1-.36.79c-.18.15-.38.26-.61.42,2.29.35,4.49.81,6.17,2.58a4.89,4.89,0,0,0-2.32-4.69,4,4,0,0,0-4.25.13A7.37,7.37,0,0,1,28.7,5,.81.81,0,0,1,29.31,5.56Z"/><path class="cls-1" d="M31.28,8.07c-.63-.23-1.28-.39-1.93-.58l0,.08.75.27a9.29,9.29,0,0,1,3.27,2.05A2.64,2.64,0,0,1,34.14,13a.24.24,0,0,0,0,.2,6.57,6.57,0,0,1,1.53,1.62c.05-.17.1-.3.13-.42a4.34,4.34,0,0,0-.92-3.88A8.11,8.11,0,0,0,31.28,8.07Z"/><path class="cls-1" d="M25,16c-1.14-.61-1.56-1.58-1.37-3.18a2.65,2.65,0,0,0-.15,3A2.76,2.76,0,0,0,26.4,17c.91-.21,1.83-1,1.89-1.56A2.77,2.77,0,0,1,25,16Z"/><path class="cls-1" d="M26.69,12.34A1.15,1.15,0,1,0,27.8,13.5,1.13,1.13,0,0,0,26.69,12.34Z"/><path class="cls-1" d="M23.86,10.43a15.25,15.25,0,0,0-.93,1.34,3.61,3.61,0,0,0-.48,2.39,3.24,3.24,0,0,1,3.34-2.5l-1.72-1.3S23.9,10.38,23.86,10.43Z"/><path class="cls-1" d="M29.8,13.38,28.2,13a4.5,4.5,0,0,1,.48,1.85,3.94,3.94,0,0,1-.38,1.88A3.54,3.54,0,0,0,29.8,13.38Z"/></svg>