<svg id="Слой_1" data-name="Слой 1" xmlns="http://www.w3.org/2000/svg" viewBox="0 0 209 46"><defs><style>.cls-1{fill:#001355;}</style></defs><title>Монтажная область 18 копия 3</title><path class="cls-1" d="M62.4,10.71a7.22,7.22,0,0,1,5,1.56A6.05,6.05,0,0,1,69.14,17v8.68H65.87v-1.8c-.87,1.33-2.43,2-4.66,2a6.16,6.16,0,0,1-4-1.23,3.93,3.93,0,0,1-1.51-3.2,3.94,3.94,0,0,1,1.48-3.21A7.4,7.4,0,0,1,61.84,17h3.83v-.22a3,3,0,0,0-.93-2.39A4,4,0,0,0,62,13.59a6.8,6.8,0,0,0-4.49,1.47l-1.36-2.52A10,10,0,0,1,62.4,10.71Zm-.47,12.64a4.42,4.42,0,0,0,2.31-.6,3.2,3.2,0,0,0,1.43-1.7V19.33H62.09c-2,0-3,.66-3,2a1.77,1.77,0,0,0,.75,1.5A3.43,3.43,0,0,0,61.93,23.35Z"/><path class="cls-1" d="M84.75,5.11h3.46V25.68H84.89V23.77A6,6,0,0,1,80,25.87a7.29,7.29,0,0,1-5.38-2.09,7.44,7.44,0,0,1-2.11-5.5A7.18,7.18,0,0,1,80,10.71a6,6,0,0,1,4.77,2ZM77.23,21.63a4.55,4.55,0,0,0,6.33,0,4.59,4.59,0,0,0,1.24-3.35,4.6,4.6,0,0,0-1.24-3.36,4.58,4.58,0,0,0-6.33,0A4.6,4.6,0,0,0,76,18.28,4.59,4.59,0,0,0,77.23,21.63Z"/><path class="cls-1" d="M103.3,10.87h3.33l-6.35,14.81H96.7L90.35,10.87H94l4.61,11Z"/><path class="cls-1" d="M115,25.87a7.82,7.82,0,0,1-5.64-2.13,7.23,7.23,0,0,1-2.24-5.46,7.18,7.18,0,0,1,2.24-5.45,8.62,8.62,0,0,1,11.32,0,7.2,7.2,0,0,1,2.22,5.45,7.25,7.25,0,0,1-2.22,5.46A7.86,7.86,0,0,1,115,25.87Zm-3.15-4.24A4.19,4.19,0,0,0,115,22.91a4.24,4.24,0,0,0,3.16-1.28,4.6,4.6,0,0,0,1.25-3.35,4.61,4.61,0,0,0-1.25-3.36A4.23,4.23,0,0,0,115,13.65a4.18,4.18,0,0,0-3.15,1.27,4.64,4.64,0,0,0-1.23,3.36A4.63,4.63,0,0,0,111.88,21.63Z"/><path class="cls-1" d="M133.05,25.87a8,8,0,0,1-5.77-2.13A7.23,7.23,0,0,1,125,18.28a7.18,7.18,0,0,1,2.24-5.45,8.88,8.88,0,0,1,9.61-1.24,5.79,5.79,0,0,1,2.48,2.56l-2.66,1.55a4.08,4.08,0,0,0-3.69-2,4.38,4.38,0,0,0-3.21,1.26,4.52,4.52,0,0,0-1.28,3.37,4.58,4.58,0,0,0,1.26,3.37A4.38,4.38,0,0,0,133,22.91a4.1,4.1,0,0,0,3.69-2.05l2.66,1.55A6,6,0,0,1,136.86,25,7.83,7.83,0,0,1,133.05,25.87Z"/><path class="cls-1" d="M148,10.71a7.25,7.25,0,0,1,5,1.56A6,6,0,0,1,154.76,17v8.68h-3.27v-1.8q-1.31,2-4.66,2a6.13,6.13,0,0,1-4-1.23,4.17,4.17,0,0,1,0-6.41,7.38,7.38,0,0,1,4.67-1.2h3.83v-.22a3,3,0,0,0-.93-2.39,4,4,0,0,0-2.76-.83,6.8,6.8,0,0,0-4.49,1.47l-1.36-2.52A10,10,0,0,1,148,10.71Zm-.47,12.64a4.48,4.48,0,0,0,2.32-.6,3.24,3.24,0,0,0,1.43-1.7V19.33h-3.58c-2,0-3,.66-3,2a1.76,1.76,0,0,0,.74,1.5A3.45,3.45,0,0,0,147.55,23.35Z"/><path class="cls-1" d="M167.13,22.41l1,2.47a6.17,6.17,0,0,1-7.1-.28,4.9,4.9,0,0,1-1.33-3.72V13.76h-2.44V11h2.44V7.6h3.47V11h4v2.78h-4v7c0,1.48.68,2.22,2.05,2.22A3.08,3.08,0,0,0,167.13,22.41Z"/><path class="cls-1" d="M174,25.22a2.27,2.27,0,0,1-3.88-1.65,2.21,2.21,0,0,1,2.27-2.3,2.22,2.22,0,0,1,2.28,2.3A2.22,2.22,0,0,1,174,25.22Z"/><path class="cls-1" d="M188.59,10.87h3.47V25.68h-3.3V23.79A5.8,5.8,0,0,1,184,25.87a6.42,6.42,0,0,1-4.67-1.65,6.49,6.49,0,0,1-1.71-4.89V10.87h3.47v8q0,4,3.46,4a3.89,3.89,0,0,0,3-1.15,4.6,4.6,0,0,0,1.09-3.31Z"/><path class="cls-1" d="M202.26,10.71a7.26,7.26,0,0,1,5,1.56A6.08,6.08,0,0,1,209,17v8.68h-3.27v-1.8q-1.3,2-4.66,2a6.17,6.17,0,0,1-4-1.23,4.18,4.18,0,0,1,0-6.41,7.41,7.41,0,0,1,4.68-1.2h3.82v-.22a3,3,0,0,0-.93-2.39,4,4,0,0,0-2.75-.83,6.83,6.83,0,0,0-4.5,1.47L196,12.54A10,10,0,0,1,202.26,10.71Zm-.47,12.64a4.48,4.48,0,0,0,2.32-.6,3.18,3.18,0,0,0,1.42-1.7V19.33H202c-2,0-3,.66-3,2a1.77,1.77,0,0,0,.75,1.5A3.43,3.43,0,0,0,201.79,23.35Z"/><path class="cls-1" d="M90.33,33.64v5.78h-.55V34.14H85.84v5.28h-.56V33.64Z"/><path class="cls-1" d="M90.57,39.66h-1V34.38H86.07v5.28H85V33.4h5.53ZM90,39.18h.07v-5.3H85.52v5.3h.08V33.9H90Z"/><path class="cls-1" d="M97.1,34a2.75,2.75,0,0,1,1,1,3.31,3.31,0,0,1,0,3,2.68,2.68,0,0,1-1,1,2.91,2.91,0,0,1-1.46.37,2.74,2.74,0,0,1-1.39-.36,2.5,2.5,0,0,1-1-1v3.47h-.56V33.64h.54V35a2.41,2.41,0,0,1,1-1,2.65,2.65,0,0,1,1.4-.38A2.92,2.92,0,0,1,97.1,34Zm-.3,4.68a2.15,2.15,0,0,0,.83-.86,2.72,2.72,0,0,0,0-2.52,2.24,2.24,0,0,0-.83-.87,2.41,2.41,0,0,0-1.2-.31,2.37,2.37,0,0,0-1.19.31,2.24,2.24,0,0,0-.83.87,2.8,2.8,0,0,0,0,2.52,2.15,2.15,0,0,0,.83.86A2.27,2.27,0,0,0,95.6,39,2.31,2.31,0,0,0,96.8,38.65Z"/><path class="cls-1" d="M93.53,41.81h-1V33.4h1v.85a2.58,2.58,0,0,1,.6-.49,3.19,3.19,0,0,1,3.11,0h0a3,3,0,0,1,1.11,1.14,3.23,3.23,0,0,1,.4,1.63,3.32,3.32,0,0,1-.4,1.64,2.94,2.94,0,0,1-1.11,1.13,3.23,3.23,0,0,1-3.09,0,2.77,2.77,0,0,1-.6-.47ZM93,41.33h.08V37.15l.08.15a3.19,3.19,0,0,1-.09-.77,3.4,3.4,0,0,1,.08-.73L93,36v-2.1H93ZM94.63,39A2.77,2.77,0,0,0,97,38.88a2.4,2.4,0,0,0,.93-.94,2.86,2.86,0,0,0,.34-1.41,2.77,2.77,0,0,0-.34-1.4,2.5,2.5,0,0,0-.93-1h0A2.69,2.69,0,0,0,94.65,34a2.7,2.7,0,0,1,2.27.17,2.34,2.34,0,0,1,.92.95,3,3,0,0,1,0,2.76,2.47,2.47,0,0,1-.92,1h0A2.74,2.74,0,0,1,94.63,39Zm1-4.7a2.06,2.06,0,0,0-1.07.28,2,2,0,0,0-.74.77,2.38,2.38,0,0,0-.27,1.15,2.41,2.41,0,0,0,.27,1.15,2,2,0,0,0,.74.77,2.22,2.22,0,0,0,2.15,0h0a2.05,2.05,0,0,0,.75-.77,2.41,2.41,0,0,0,.27-1.15,2.38,2.38,0,0,0-.27-1.15,2,2,0,0,0-1.83-1.05Z"/><path class="cls-1" d="M103.84,34.14a2.14,2.14,0,0,1,.58,1.61v3.67h-.53v-1a2,2,0,0,1-.81.79,2.69,2.69,0,0,1-1.28.28,2.35,2.35,0,0,1-1.52-.45,1.57,1.57,0,0,1,0-2.37,2.51,2.51,0,0,1,1.64-.44h2v-.47a1.63,1.63,0,0,0-.43-1.23,1.8,1.8,0,0,0-1.28-.42,3.11,3.11,0,0,0-1.1.2,2.75,2.75,0,0,0-.9.53l-.27-.4a3,3,0,0,1,1-.6,3.85,3.85,0,0,1,1.27-.22A2.31,2.31,0,0,1,103.84,34.14Zm-.74,4.54a2,2,0,0,0,.76-1V36.63h-2a1.91,1.91,0,0,0-1.23.31,1,1,0,0,0-.38.85,1.06,1.06,0,0,0,.42.89,1.86,1.86,0,0,0,1.18.33A2.16,2.16,0,0,0,103.1,38.68Z"/><path class="cls-1" d="M101.8,39.7a2.56,2.56,0,0,1-1.67-.51,1.68,1.68,0,0,1-.65-1.38,1.71,1.71,0,0,1,.6-1.35,2.67,2.67,0,0,1,1.8-.5h1.74v-.23a1.43,1.43,0,0,0-.36-1.06,1.57,1.57,0,0,0-1.11-.35,2.75,2.75,0,0,0-1.84.67l-.2.18-.55-.79.16-.14a3.27,3.27,0,0,1,1.12-.65,3.83,3.83,0,0,1,1.35-.23A2.54,2.54,0,0,1,104,34h0a2.36,2.36,0,0,1,.65,1.78v3.91h-1v-.59a2.1,2.1,0,0,1-.46.32A2.88,2.88,0,0,1,101.8,39.7Zm2.32-.52h.06V35.75a1.9,1.9,0,0,0-.5-1.43,2.1,2.1,0,0,0-1.49-.49A3.43,3.43,0,0,0,101,34a2.65,2.65,0,0,0-.8.42h0a3,3,0,0,1,.76-.4,3.44,3.44,0,0,1,1.19-.22,2,2,0,0,1,1.44.49,1.87,1.87,0,0,1,.51,1.4v1.76l0,0Zm-3.51-2.5a1.07,1.07,0,0,0-.22.15,1.22,1.22,0,0,0-.43,1,1.2,1.2,0,0,0,.47,1,1.65,1.65,0,0,0,.65.32,1.47,1.47,0,0,1-.53-.27,1.3,1.3,0,0,1-.51-1.08,1.27,1.27,0,0,1,.47-1Zm1.28.19a1.75,1.75,0,0,0-1.08.25.81.81,0,0,0-.3.67.83.83,0,0,0,.33.7,1.65,1.65,0,0,0,1,.28,2,2,0,0,0,1.09-.29h0a1.76,1.76,0,0,0,.65-.81v-.8Z"/><path class="cls-1" d="M111.36,37.87a1.33,1.33,0,0,1-.55,1.15,2.74,2.74,0,0,1-1.64.4h-2.51V33.64h2.44a2.63,2.63,0,0,1,1.51.38,1.25,1.25,0,0,1,.55,1.09,1.28,1.28,0,0,1-.28.85,1.61,1.61,0,0,1-.79.48A1.34,1.34,0,0,1,111.36,37.87Zm-4.15-1.6h1.86a2,2,0,0,0,1.14-.28,1,1,0,0,0,0-1.63,2,2,0,0,0-1.14-.27h-1.86Zm3.6,1.58a1,1,0,0,0-.38-.87,2.07,2.07,0,0,0-1.19-.27h-2V39h2Q110.81,39,110.81,37.85Z"/><path class="cls-1" d="M109.17,39.66h-2.74V33.4h2.67a2.88,2.88,0,0,1,1.65.42,1.49,1.49,0,0,1,.65,1.29,1.53,1.53,0,0,1-.34,1,1.42,1.42,0,0,1-.31.29,1.5,1.5,0,0,1,.85,1.47,1.56,1.56,0,0,1-.65,1.34A3,3,0,0,1,109.17,39.66Zm-2.27-.48H107v-5.3h-.07Zm3.87-2.2a1.33,1.33,0,0,1,.27.87,1.21,1.21,0,0,1-.9,1.22,1.73,1.73,0,0,0,.53-.24,1.12,1.12,0,0,0,.45-1A1.08,1.08,0,0,0,110.77,37Zm-3.32,1.75h1.71c1.41,0,1.41-.64,1.41-.88a.77.77,0,0,0-.28-.67,1.77,1.77,0,0,0-1.05-.24h-1.79Zm0-2.7h1.62a1.8,1.8,0,0,0,1-.23.71.71,0,0,0,.3-.62.7.7,0,0,0-.29-.62,1.82,1.82,0,0,0-1-.23h-1.62Zm2.6-2a1.08,1.08,0,0,1,.3.16,1.14,1.14,0,0,1,.5,1,1.35,1.35,0,0,1-.15.62,1,1,0,0,0,.22-.69,1,1,0,0,0-.45-.89A1.38,1.38,0,0,0,110.05,34Z"/><path class="cls-1" d="M114.15,39.09a2.74,2.74,0,0,1-1-1.05,3.19,3.19,0,0,1,0-3,2.74,2.74,0,0,1,1-1.05,3.07,3.07,0,0,1,3,0,2.69,2.69,0,0,1,1,1.05,3.27,3.27,0,0,1,0,3,2.69,2.69,0,0,1-1,1.05,3.14,3.14,0,0,1-3,0Zm2.67-.44a2.15,2.15,0,0,0,.83-.86,2.72,2.72,0,0,0,0-2.52,2.24,2.24,0,0,0-.83-.87,2.34,2.34,0,0,0-1.19-.31,2.37,2.37,0,0,0-1.19.31,2.32,2.32,0,0,0-.83.87,2.8,2.8,0,0,0,0,2.52,2.22,2.22,0,0,0,.83.86,2.27,2.27,0,0,0,1.19.31A2.25,2.25,0,0,0,116.82,38.65Z"/><path class="cls-1" d="M115.63,39.7a3.16,3.16,0,0,1-1.59-.41h0a2.92,2.92,0,0,1-1.13-1.13,3.45,3.45,0,0,1,0-3.26A3,3,0,0,1,114,33.76a3.34,3.34,0,0,1,3.19,0,3,3,0,0,1,1.13,1.14,3.52,3.52,0,0,1,0,3.26,3,3,0,0,1-1.13,1.13A3.17,3.17,0,0,1,115.63,39.7Zm0-5.87a2.73,2.73,0,0,0-1.36.35,2.52,2.52,0,0,0-.94,1,2.82,2.82,0,0,0-.35,1.4,2.79,2.79,0,0,0,.35,1.39,2.48,2.48,0,0,0,.94,1h0a2.85,2.85,0,0,0,2.72,0,2.5,2.5,0,0,0,1-1,2.78,2.78,0,0,0,.34-1.39,2.82,2.82,0,0,0-.34-1.4,2.55,2.55,0,0,0-1-1A2.7,2.7,0,0,0,115.63,33.83Zm0,5.37a2.47,2.47,0,0,1-2.23-1.29,3.05,3.05,0,0,1,0-2.76,2.55,2.55,0,0,1,.92-.95,2.68,2.68,0,0,1,2.63,0,2.45,2.45,0,0,1,.91.95,3,3,0,0,1,0,2.76,2.52,2.52,0,0,1-.91,1h0A2.55,2.55,0,0,1,115.63,39.2Zm0-4.87a2.06,2.06,0,0,0-1.07.28,2,2,0,0,0-.74.77,2.38,2.38,0,0,0-.27,1.15,2.41,2.41,0,0,0,.27,1.15,2.1,2.1,0,0,0,.74.77,2.2,2.2,0,0,0,2.14,0,2,2,0,0,0,.74-.77,2.3,2.3,0,0,0,.28-1.15,2.28,2.28,0,0,0-.28-1.15,2,2,0,0,0-.74-.77A2,2,0,0,0,115.63,34.33Z"/><path class="cls-1" d="M125,37.87a1.33,1.33,0,0,1-.55,1.15,2.74,2.74,0,0,1-1.64.4h-2.5V33.64h2.43a2.67,2.67,0,0,1,1.52.38,1.26,1.26,0,0,1,.54,1.09,1.28,1.28,0,0,1-.28.85,1.61,1.61,0,0,1-.79.48A1.34,1.34,0,0,1,125,37.87Zm-4.15-1.6h1.86a1.92,1.92,0,0,0,1.14-.28.93.93,0,0,0,.4-.81.94.94,0,0,0-.39-.82,2.06,2.06,0,0,0-1.15-.27h-1.86Zm3.6,1.58a1,1,0,0,0-.38-.87,2,2,0,0,0-1.18-.27h-2V39h1.95Q124.47,39,124.47,37.85Z"/><path class="cls-1" d="M122.83,39.66h-2.74V33.4h2.67a2.86,2.86,0,0,1,1.65.42,1.62,1.62,0,0,1,.31,2.29,1.42,1.42,0,0,1-.31.29,1.5,1.5,0,0,1,.85,1.47,1.58,1.58,0,0,1-.64,1.34A3,3,0,0,1,122.83,39.66Zm-2.26-.48h.06v-5.3h-.06Zm3.86-2.2a1.28,1.28,0,0,1,.28.87,1.2,1.2,0,0,1-.91,1.22,1.63,1.63,0,0,0,.53-.24,1.09,1.09,0,0,0,.45-1A1.08,1.08,0,0,0,124.43,37Zm-3.32,1.75h1.71c1.41,0,1.41-.64,1.41-.88a.75.75,0,0,0-.28-.67,1.75,1.75,0,0,0-1-.24h-1.8Zm0-2.7h1.62a1.8,1.8,0,0,0,1-.23.69.69,0,0,0,.3-.62.68.68,0,0,0-.29-.62,1.82,1.82,0,0,0-1-.23h-1.62Zm2.6-2a1.08,1.08,0,0,1,.3.16,1.14,1.14,0,0,1,.5,1,1.24,1.24,0,0,1-.15.62,1,1,0,0,0,.22-.69,1,1,0,0,0-.44-.89A1.44,1.44,0,0,0,123.71,34Z"/><path class="cls-1" d="M127,33.64h.56v4.93l4.12-4.93h.48v5.78h-.55V34.49l-4.12,4.93H127Z"/><path class="cls-1" d="M132.39,39.66h-1V35.15l-3.77,4.51h-.83V33.4h1v4.51l3.77-4.51h.83Zm-.55-.48h.08v-5.3h-.08Zm-4.49,0h0l4.43-5.3h0Zm-.12,0h.08v-5.3h-.08Z"/><path class="cls-1" d="M134.55,33.64h.55v4.93l4.12-4.93h.49v5.78h-.56V34.49L135,39.42h-.48ZM136,32.39a1.29,1.29,0,0,1-.44-1h.41a.92.92,0,0,0,.34.72,1.25,1.25,0,0,0,.82.27,1.21,1.21,0,0,0,.82-.27.92.92,0,0,0,.34-.72h.42a1.26,1.26,0,0,1-.45,1,1.68,1.68,0,0,1-1.13.36A1.72,1.72,0,0,1,136,32.39Z"/><path class="cls-1" d="M139.94,39.66h-1V35.15l-3.77,4.51h-.83V33.4h1v4.51l3.77-4.51h.83Zm-.55-.48h.08v-5.3h-.08Zm-4.49,0h0l4.43-5.3h0Zm-.12,0h.08v-5.3h-.08ZM137.1,33a2,2,0,0,1-1.28-.41,1.53,1.53,0,0,1-.53-1.19v-.24h.88v.24a.71.71,0,0,0,.25.54,1.17,1.17,0,0,0,1.34,0,.72.72,0,0,0,.25-.55v-.23h.9v.24a1.49,1.49,0,0,1-.52,1.19A2,2,0,0,1,137.1,33Z"/><path class="cls-1" d="M150,33.64v5.78h-.55V34.14H145.5v5.28h-.56V33.64Z"/><path class="cls-1" d="M150.23,39.66h-1V34.38h-3.46v5.28h-1V33.4h5.53Zm-.55-.48h.07v-5.3h-4.57v5.3h.08V33.9h4.42Z"/><path class="cls-1" d="M153.21,39.09a2.69,2.69,0,0,1-1-1.05,3.27,3.27,0,0,1,0-3,2.69,2.69,0,0,1,1-1.05,3.07,3.07,0,0,1,3,0,2.74,2.74,0,0,1,1,1.05,3.19,3.19,0,0,1,0,3,2.74,2.74,0,0,1-1,1.05,3.15,3.15,0,0,1-3,0Zm2.67-.44a2.22,2.22,0,0,0,.83-.86,2.8,2.8,0,0,0,0-2.52,2.32,2.32,0,0,0-.83-.87,2.37,2.37,0,0,0-1.19-.31,2.34,2.34,0,0,0-1.19.31,2.24,2.24,0,0,0-.83.87,2.72,2.72,0,0,0,0,2.52,2.15,2.15,0,0,0,.83.86,2.25,2.25,0,0,0,1.19.31A2.27,2.27,0,0,0,155.88,38.65Z"/><path class="cls-1" d="M154.69,39.7a3.17,3.17,0,0,1-1.6-.41h0A2.9,2.9,0,0,1,152,38.16a3.45,3.45,0,0,1,0-3.26,3,3,0,0,1,1.12-1.14,3.34,3.34,0,0,1,3.19,0,3,3,0,0,1,1.13,1.14,3.45,3.45,0,0,1,0,3.26,2.92,2.92,0,0,1-1.13,1.13A3.16,3.16,0,0,1,154.69,39.7Zm0-5.87a2.7,2.7,0,0,0-1.36.35,2.55,2.55,0,0,0-1,1,2.82,2.82,0,0,0-.34,1.4,2.78,2.78,0,0,0,.34,1.39,2.5,2.5,0,0,0,1,1h0a2.85,2.85,0,0,0,2.72,0,2.48,2.48,0,0,0,.94-1,2.79,2.79,0,0,0,.35-1.39,2.82,2.82,0,0,0-.35-1.4,2.52,2.52,0,0,0-.94-1A2.7,2.7,0,0,0,154.69,33.83Zm0,5.37a2.47,2.47,0,0,1-2.23-1.29,3,3,0,0,1,0-2.76,2.4,2.4,0,0,1,.92-.95,2.66,2.66,0,0,1,2.62,0,2.47,2.47,0,0,1,.92.95,3.05,3.05,0,0,1,0,2.76,2.54,2.54,0,0,1-.92,1h0A2.54,2.54,0,0,1,154.69,39.2Zm0-4.87a2,2,0,0,0-1.07.28,2,2,0,0,0-.74.77,2.28,2.28,0,0,0-.28,1.15,2.3,2.3,0,0,0,.28,1.15,2.1,2.1,0,0,0,.74.77,2.2,2.2,0,0,0,2.14,0,2,2,0,0,0,.74-.77,2.41,2.41,0,0,0,.27-1.15,2.38,2.38,0,0,0-.27-1.15,2,2,0,0,0-.74-.77A2.06,2.06,0,0,0,154.69,34.33Z"/><path class="cls-1" d="M163.76,34a2.75,2.75,0,0,1,1,1,3.31,3.31,0,0,1,0,3,2.68,2.68,0,0,1-1,1,2.92,2.92,0,0,1-1.47.37,2.68,2.68,0,0,1-1.38-.36,2.5,2.5,0,0,1-1-1v3.47h-.56V33.64h.53V35a2.54,2.54,0,0,1,1-1,2.7,2.7,0,0,1,1.4-.38A2.93,2.93,0,0,1,163.76,34Zm-.3,4.68a2.15,2.15,0,0,0,.83-.86,2.72,2.72,0,0,0,0-2.52,2.24,2.24,0,0,0-.83-.87,2.44,2.44,0,0,0-1.2-.31,2.37,2.37,0,0,0-1.19.31,2.24,2.24,0,0,0-.83.87,2.8,2.8,0,0,0,0,2.52,2.15,2.15,0,0,0,.83.86,2.27,2.27,0,0,0,1.19.31A2.33,2.33,0,0,0,163.46,38.65Z"/><path class="cls-1" d="M160.19,41.81h-1V33.4h1v.85a2.63,2.63,0,0,1,.61-.49,3.17,3.17,0,0,1,3.1,0h0A3,3,0,0,1,165,34.9a3.54,3.54,0,0,1,0,3.27,2.9,2.9,0,0,1-1.12,1.13,3.21,3.21,0,0,1-3.08,0,2.55,2.55,0,0,1-.6-.47Zm-.56-.48h.08V37.15l.08.15a3.19,3.19,0,0,1-.09-.77,2.87,2.87,0,0,1,.08-.73l-.09.18v-2.1h-.06Zm1.66-2.3a2.77,2.77,0,0,0,2.35-.15,2.4,2.4,0,0,0,.93-.94,2.86,2.86,0,0,0,.34-1.41,2.77,2.77,0,0,0-.34-1.4,2.5,2.5,0,0,0-.93-1h0A2.71,2.71,0,0,0,161.3,34a2.72,2.72,0,0,1,2.28.17,2.34,2.34,0,0,1,.92.95,3,3,0,0,1,0,2.76,2.47,2.47,0,0,1-.92,1h0A2.74,2.74,0,0,1,161.29,39Zm1-4.7a2,2,0,0,0-1.07.28,2,2,0,0,0-.74.77,2.39,2.39,0,0,0-.28,1.15,2.42,2.42,0,0,0,.28,1.15,2,2,0,0,0,.74.77,2.22,2.22,0,0,0,2.15,0h0a2,2,0,0,0,.74-.77,2.3,2.3,0,0,0,.28-1.15,2.28,2.28,0,0,0-.28-1.15,2,2,0,0,0-.74-.77A2.07,2.07,0,0,0,162.26,34.33Z"/><path class="cls-1" d="M170.6,34.14h-2.26v5.28h-.55V34.14h-2.26v-.5h5.07Z"/><path class="cls-1" d="M168.58,39.66h-1V34.38h-2.26v-1h5.55v1h-2.26Zm-.55-.48h.07V33.9l2.26,0-4.59,0H168Z"/><path class="cls-1" d="M175.35,34.14a2.14,2.14,0,0,1,.58,1.61v3.67h-.54v-1a1.91,1.91,0,0,1-.8.79,2.69,2.69,0,0,1-1.28.28,2.35,2.35,0,0,1-1.52-.45,1.57,1.57,0,0,1,0-2.37,2.51,2.51,0,0,1,1.64-.44h2v-.47a1.6,1.6,0,0,0-.44-1.23,1.75,1.75,0,0,0-1.27-.42,3.17,3.17,0,0,0-1.11.2,2.81,2.81,0,0,0-.89.53l-.27-.4a3,3,0,0,1,1-.6,3.85,3.85,0,0,1,1.27-.22A2.31,2.31,0,0,1,175.35,34.14Zm-.74,4.54a2,2,0,0,0,.76-1V36.63h-2a1.91,1.91,0,0,0-1.23.31,1,1,0,0,0-.39.85,1.06,1.06,0,0,0,.42.89,1.91,1.91,0,0,0,1.19.33A2.16,2.16,0,0,0,174.61,38.68Z"/><path class="cls-1" d="M173.31,39.7a2.56,2.56,0,0,1-1.67-.51,1.68,1.68,0,0,1-.65-1.38,1.71,1.71,0,0,1,.6-1.35,2.67,2.67,0,0,1,1.8-.5h1.74v-.23a1.43,1.43,0,0,0-.36-1.06,1.59,1.59,0,0,0-1.11-.35,2.88,2.88,0,0,0-1,.18,2.75,2.75,0,0,0-.82.49l-.2.18-.55-.79.16-.14a3.18,3.18,0,0,1,1.12-.65,3.83,3.83,0,0,1,1.35-.23,2.49,2.49,0,0,1,1.81.61h0a2.32,2.32,0,0,1,.65,1.78v3.91h-1v-.59a1.83,1.83,0,0,1-.45.32A2.91,2.91,0,0,1,173.31,39.7Zm2.32-.52h.06V35.75a1.86,1.86,0,0,0-.51-1.43,2.06,2.06,0,0,0-1.48-.49,3.39,3.39,0,0,0-1.19.21,2.65,2.65,0,0,0-.8.42h0a3,3,0,0,1,.76-.4,3.4,3.4,0,0,1,1.19-.22,2,2,0,0,1,1.44.49,1.87,1.87,0,0,1,.51,1.4v1.76l0,0Zm-3.51-2.5a1.07,1.07,0,0,0-.22.15,1.22,1.22,0,0,0-.43,1,1.2,1.2,0,0,0,.47,1,1.68,1.68,0,0,0,.64.32,1.51,1.51,0,0,1-.52-.27,1.3,1.3,0,0,1-.51-1.08,1.27,1.27,0,0,1,.47-1Zm1.28.19a1.75,1.75,0,0,0-1.08.25.81.81,0,0,0-.3.67.83.83,0,0,0,.33.7,1.65,1.65,0,0,0,1,.28,2,2,0,0,0,1.09-.29h0a1.76,1.76,0,0,0,.65-.81v-.8Z"/><path class="cls-1" d="M182.69,33.64v5.78h-.55V34.14h-3l-.07,1.54c-.05.79-.11,1.46-.2,2a3.42,3.42,0,0,1-.46,1.31,1,1,0,0,1-.88.49,2.18,2.18,0,0,1-.48-.07l.06-.48a1.25,1.25,0,0,0,.26,0,.78.78,0,0,0,.71-.46,3.35,3.35,0,0,0,.33-1.13c.06-.45.11-1,.15-1.76l.1-2Z"/><path class="cls-1" d="M177.51,39.72a2.18,2.18,0,0,1-.54-.08l-.2,0,.11-1,.27.07.2,0a.55.55,0,0,0,.5-.33,3.18,3.18,0,0,0,.31-1c.06-.44.1-1,.14-1.74l.11-2.22h4.52v6.26h-1V34.38h-2.55l-.06,1.31c0,.8-.12,1.48-.21,2a3.66,3.66,0,0,1-.48,1.4A1.27,1.27,0,0,1,177.51,39.72Zm-.22-.5.22,0a.77.77,0,0,0,.68-.39,3.12,3.12,0,0,0,.42-1.22,17.5,17.5,0,0,0,.2-2l.09-1.76h3.48v5.28h.07v-5.3h-3.59l-.08,1.76c0,.73-.09,1.33-.15,1.78a3.32,3.32,0,0,1-.36,1.21,1,1,0,0,1-.92.58h-.06Z"/><path class="cls-1" d="M35.6,29.57H30a28.13,28.13,0,0,1-4.15,7.36A14.32,14.32,0,0,0,35.6,29.57Z"/><path class="cls-1" d="M22.91,36.63a27.68,27.68,0,0,0,4.44-7.06H18.47A27.49,27.49,0,0,0,22.91,36.63Z"/><path class="cls-1" d="M17.62,27.11H28.2a15,15,0,0,0,0-8.06H17.58a15,15,0,0,0,0,8.06Z"/><path class="cls-1" d="M15,19.05H9.34a14.18,14.18,0,0,0,.05,8.06h5.69A17.8,17.8,0,0,1,14.59,23,18,18,0,0,1,15,19.05Z"/><path class="cls-1" d="M35.69,16.59a14.32,14.32,0,0,0-9.83-7.52,28.15,28.15,0,0,1,4.21,7.52Z"/><path class="cls-1" d="M31,0H15A15,15,0,0,0,0,15V31A15,15,0,0,0,15,46H31A15,15,0,0,0,46,31V15A15,15,0,0,0,31,0ZM23.22,39.68H22.6a16.68,16.68,0,0,1,0-33.36h.57l0,.5h0v-.5a16.68,16.68,0,0,1,0,33.36Z"/><path class="cls-1" d="M10.4,29.57a14.33,14.33,0,0,0,9.52,7.31,28.21,28.21,0,0,1-4.11-7.31Z"/><path class="cls-1" d="M36.61,27.11a14.18,14.18,0,0,0,0-8.06H30.78A18,18,0,0,1,31.23,23a18.34,18.34,0,0,1-.48,4.11Z"/><path class="cls-1" d="M10.31,16.59h5.45a28,28,0,0,1,4.16-7.47A14.33,14.33,0,0,0,10.31,16.59Z"/><path class="cls-1" d="M27.42,16.59a27.14,27.14,0,0,0-4.51-7.22,27.42,27.42,0,0,0-4.5,7.22Z"/></svg>