<svg id="Слой_1" data-name="Слой 1" xmlns="http://www.w3.org/2000/svg" viewBox="0 0 222 46"><defs><style>.cls-1{fill:#001355;}</style></defs><title>Монтажная область 18 копия 6</title><path class="cls-1" d="M61.2,10.71a7.19,7.19,0,0,1,7.52,7.57,7.22,7.22,0,0,1-7.52,7.59,6,6,0,0,1-4.9-2.1v1.91H53V5.11h3.46v7.57A6.05,6.05,0,0,1,61.2,10.71ZM57.65,21.63a4.27,4.27,0,0,0,3.17,1.28A4.18,4.18,0,0,0,64,21.63a4.63,4.63,0,0,0,1.24-3.35A4.64,4.64,0,0,0,64,14.92a4.17,4.17,0,0,0-3.14-1.27,4.26,4.26,0,0,0-3.17,1.27,4.6,4.6,0,0,0-1.24,3.36A4.59,4.59,0,0,0,57.65,21.63Z"/><path class="cls-1" d="M78.67,25.87A7.85,7.85,0,0,1,73,23.74a7.22,7.22,0,0,1-2.23-5.46A7.17,7.17,0,0,1,73,12.83a8.63,8.63,0,0,1,11.33,0,7.19,7.19,0,0,1,2.21,5.45,7.24,7.24,0,0,1-2.21,5.46A7.89,7.89,0,0,1,78.67,25.87Zm-3.14-4.24a4.18,4.18,0,0,0,3.14,1.28,4.23,4.23,0,0,0,3.16-1.28,4.56,4.56,0,0,0,1.25-3.35,4.57,4.57,0,0,0-1.25-3.36,4.22,4.22,0,0,0-3.16-1.27,4.17,4.17,0,0,0-3.14,1.27,4.6,4.6,0,0,0-1.24,3.36A4.59,4.59,0,0,0,75.53,21.63Z"/><path class="cls-1" d="M93.2,13c1-1.56,2.76-2.33,5.27-2.33V14a4.08,4.08,0,0,0-.8-.09,4.19,4.19,0,0,0-3.16,1.18,4.71,4.71,0,0,0-1.14,3.4v7.18H89.9V10.87h3.3Z"/><path class="cls-1" d="M103.16,8.43a2.24,2.24,0,0,1-1.58-.59,2,2,0,0,1-.64-1.49,1.93,1.93,0,0,1,.64-1.48,2.21,2.21,0,0,1,1.58-.6,2.29,2.29,0,0,1,1.58.57,1.86,1.86,0,0,1,.64,1.43,2.09,2.09,0,0,1-.63,1.54A2.17,2.17,0,0,1,103.16,8.43Zm-1.75,17.25V10.87h3.47V25.68Z"/><path class="cls-1" d="M114,25.87a13,13,0,0,1-3.52-.47,8.83,8.83,0,0,1-2.75-1.19l1.33-2.63a9.13,9.13,0,0,0,5.16,1.47c2.07,0,3.11-.55,3.11-1.64a1.13,1.13,0,0,0-.68-1,4.67,4.67,0,0,0-1.7-.5c-.67-.09-1.41-.21-2.2-.38a15.92,15.92,0,0,1-2.2-.61,3.59,3.59,0,0,1-1.7-1.27,3.78,3.78,0,0,1-.68-2.3A3.93,3.93,0,0,1,109.94,12a8,8,0,0,1,4.75-1.26A10.66,10.66,0,0,1,120.24,12l-1.33,2.64a8.24,8.24,0,0,0-4.25-1.11,4.77,4.77,0,0,0-2.31.45,1.37,1.37,0,0,0-.79,1.21,1.22,1.22,0,0,0,.68,1.1,4.37,4.37,0,0,0,1.69.52c.67.09,1.41.22,2.2.39a21.86,21.86,0,0,1,2.21.61A3.52,3.52,0,0,1,120,19a3.66,3.66,0,0,1,.68,2.26,3.88,3.88,0,0,1-1.8,3.33A8.54,8.54,0,0,1,114,25.87Z"/><path class="cls-1" d="M129.72,7.71c-1.46,0-2.19.8-2.19,2.39V11h4.08v2.78h-4V25.68h-3.47V13.76h-2.44V11h2.44V10a5.08,5.08,0,0,1,1.38-3.76,6.36,6.36,0,0,1,7-.56l-1,2.6A3.36,3.36,0,0,0,129.72,7.71Z"/><path class="cls-1" d="M147.63,18.36c0,.24,0,.58,0,1H136A4,4,0,0,0,137.55,22a5.22,5.22,0,0,0,3.21.95,5.42,5.42,0,0,0,4-1.6l1.85,2.13a7.31,7.31,0,0,1-6,2.41,8.25,8.25,0,0,1-5.93-2.12,7.18,7.18,0,0,1-2.25-5.47,7.31,7.31,0,0,1,2.17-5.44,7.49,7.49,0,0,1,5.49-2.13,7.31,7.31,0,0,1,5.38,2.1A7.53,7.53,0,0,1,147.63,18.36Zm-7.48-4.88a4.23,4.23,0,0,0-2.82,1,4.15,4.15,0,0,0-1.4,2.62h8.4a4,4,0,0,0-1.36-2.6A4.09,4.09,0,0,0,140.15,13.48Z"/><path class="cls-1" d="M159.36,10.71a6.16,6.16,0,0,1,4.49,1.63,6.45,6.45,0,0,1,1.7,4.85v8.49h-3.47v-8a4.17,4.17,0,0,0-.92-2.93,3.38,3.38,0,0,0-2.6-1,4,4,0,0,0-3,1.15,4.58,4.58,0,0,0-1.11,3.31v7.49H151V10.87h3.3v1.92A6.27,6.27,0,0,1,159.36,10.71Z"/><path class="cls-1" d="M172.67,25.22a2.28,2.28,0,0,1-3.88-1.65,2.28,2.28,0,1,1,4.55,0A2.18,2.18,0,0,1,172.67,25.22Z"/><path class="cls-1" d="M185.12,10.71a6.16,6.16,0,0,1,4.49,1.63,6.45,6.45,0,0,1,1.7,4.85v8.49h-3.47v-8a4.17,4.17,0,0,0-.92-2.93,3.38,3.38,0,0,0-2.6-1,4,4,0,0,0-3,1.15,4.58,4.58,0,0,0-1.11,3.31v7.49h-3.47V10.87H180v1.92A6.26,6.26,0,0,1,185.12,10.71Z"/><path class="cls-1" d="M209.77,18.36c0,.24,0,.58-.05,1H198.1A4,4,0,0,0,199.69,22a5.22,5.22,0,0,0,3.21.95,5.42,5.42,0,0,0,4-1.6l1.85,2.13a7.33,7.33,0,0,1-6,2.41,8.25,8.25,0,0,1-5.93-2.12,7.18,7.18,0,0,1-2.25-5.47,7.31,7.31,0,0,1,2.17-5.44,7.49,7.49,0,0,1,5.49-2.13,7.27,7.27,0,0,1,5.37,2.1A7.5,7.5,0,0,1,209.77,18.36Zm-7.48-4.88a4.23,4.23,0,0,0-2.82,1,4.15,4.15,0,0,0-1.4,2.62h8.4a4.05,4.05,0,0,0-4.18-3.6Z"/><path class="cls-1" d="M221,22.41l1,2.47a6.17,6.17,0,0,1-7.1-.28,4.94,4.94,0,0,1-1.33-3.72V13.76h-2.44V11h2.44V7.6H217V11h4v2.78h-4v7c0,1.48.68,2.22,2.05,2.22A3.08,3.08,0,0,0,221,22.41Z"/><path class="cls-1" d="M93,34.81v7.75h-.56V35.32H87.2v7.24h-.57V34.81Z"/><path class="cls-1" d="M93.25,42.8h-1V35.55H87.44V42.8h-1V34.57h6.85Zm-.56-.48h.08V35h-5.9v7.28H87V35.08h5.73Z"/><path class="cls-1" d="M100.71,40.38h-4.5l-1,2.18h-.61l3.56-7.75h.57l3.56,7.75h-.61Zm-.21-.48-2-4.47-2,4.47Z"/><path class="cls-1" d="M102.69,42.8h-1.14l-1-2.19H96.37l-1,2.19H94.24L98,34.57h.87Zm-.83-.48h.08L98.59,35h0l2.32,5.1h0Zm-6.87,0h.08L98.37,35h0Zm1.81-2.66h3.33L98.46,36Z"/><path class="cls-1" d="M110.23,34.81v7.75h-.56V38.87h-5.19v3.69h-.56V34.81h.56v3.56h5.19V34.81Z"/><path class="cls-1" d="M110.47,42.8h-1V39.11h-4.71V42.8h-1V34.57h1v3.56h4.71V34.57h1Zm-.57-.48H110V35h-.09v3.57h-5.66V35h-.08v7.28h.08V38.63h5.66Z"/><path class="cls-1" d="M119.4,34.81v7.75h-.57V35.32h-5.25v7.24H113V34.81Z"/><path class="cls-1" d="M119.64,42.8h-1V35.55h-4.77V42.8h-1V34.57h6.86Zm-.57-.48h.09V35h-5.9v7.28h.09V35.08h5.72Z"/><path class="cls-1" d="M124.46,34.81H125l0,2.85h-.42Zm1.79,0h.51l0,2.85h-.42Z"/><path class="cls-1" d="M127,37.9h-.89l0-3.33h1ZM126.5,35v0Zm-1.34,2.86h-.89l0-3.33h1ZM124.7,35v0Z"/><path class="cls-1" d="M129,34.81h5.52v.49h-5v2.79h2.63a3.33,3.33,0,0,1,2.07.56,2,2,0,0,1,.71,1.63A2,2,0,0,1,134.2,42a3.49,3.49,0,0,1-2.18.59h-3Zm3,7.27a2.89,2.89,0,0,0,1.76-.45,1.55,1.55,0,0,0,.6-1.33c0-1.16-.79-1.74-2.36-1.74h-2.48v3.52Z"/><path class="cls-1" d="M132,42.8h-3.27V34.57h6v1h-5v2.32h2.39a3.54,3.54,0,0,1,2.21.6,2.19,2.19,0,0,1,.8,1.82,2.26,2.26,0,0,1-.84,1.88A3.76,3.76,0,0,1,132,42.8Zm-2.79-.48h.08V35.07l5,0h-5Zm3.37-4c1.66.18,2,1.13,2,1.95a1.77,1.77,0,0,1-.69,1.52,2.57,2.57,0,0,1-1.29.46,2.72,2.72,0,0,0,1.41-.5,1.78,1.78,0,0,0,.66-1.5,1.7,1.7,0,0,0-.62-1.44A2.72,2.72,0,0,0,132.6,38.35Zm-2.81,3.49H132a2.67,2.67,0,0,0,1.62-.4,1.32,1.32,0,0,0,.5-1.14c0-.65-.22-1.5-2.12-1.5h-2.24Z"/><path class="cls-1" d="M137.62,42.22a2.67,2.67,0,0,1-1-1,3.27,3.27,0,0,1,0-3,2.69,2.69,0,0,1,1-1,3.07,3.07,0,0,1,3,0,2.74,2.74,0,0,1,1,1,3.19,3.19,0,0,1,0,3,2.71,2.71,0,0,1-1,1,3.07,3.07,0,0,1-3,0Zm2.67-.43a2.22,2.22,0,0,0,.83-.86,2.82,2.82,0,0,0,0-2.53,2.36,2.36,0,0,0-.83-.86,2.27,2.27,0,0,0-1.19-.31,2.25,2.25,0,0,0-1.19.31,2.28,2.28,0,0,0-.83.86,2.74,2.74,0,0,0,0,2.53,2.15,2.15,0,0,0,.83.86,2.25,2.25,0,0,0,1.19.31A2.27,2.27,0,0,0,140.29,41.79Z"/><path class="cls-1" d="M139.1,42.84a3.17,3.17,0,0,1-1.6-.41h0a3,3,0,0,1-1.13-1.13,3.52,3.52,0,0,1,0-3.26,3,3,0,0,1,1.13-1.14,3.34,3.34,0,0,1,3.19,0A3,3,0,0,1,141.82,38a3.45,3.45,0,0,1,0,3.26,2.92,2.92,0,0,1-1.13,1.13A3.16,3.16,0,0,1,139.1,42.84Zm0-5.87a2.7,2.7,0,0,0-1.36.35,2.55,2.55,0,0,0-1,1,3,3,0,0,0,0,2.79,2.5,2.5,0,0,0,1,1h0a2.85,2.85,0,0,0,2.72,0,2.48,2.48,0,0,0,.94-1,3,3,0,0,0,0-2.79,2.45,2.45,0,0,0-.94-1A2.7,2.7,0,0,0,139.1,37Zm0,5.37a2.48,2.48,0,0,1-1.31-.34,2.43,2.43,0,0,1-.92-1,2.7,2.7,0,0,1-.34-1.37,2.74,2.74,0,0,1,.34-1.38,2.34,2.34,0,0,1,.92-.95,2.66,2.66,0,0,1,2.62,0,2.47,2.47,0,0,1,.92.95,2.84,2.84,0,0,1,.33,1.38,2.8,2.8,0,0,1-.33,1.37,2.5,2.5,0,0,1-.92,1h0A2.54,2.54,0,0,1,139.1,42.34Zm0-4.87a2,2,0,0,0-1.07.28,2,2,0,0,0-.74.77,2.28,2.28,0,0,0-.28,1.15,2.24,2.24,0,0,0,.28,1.14,2.06,2.06,0,0,0,.74.78,2.2,2.2,0,0,0,2.14,0,2.06,2.06,0,0,0,.74-.78,2.34,2.34,0,0,0,.27-1.14,2.38,2.38,0,0,0-.27-1.15,2,2,0,0,0-.74-.77A2.06,2.06,0,0,0,139.1,37.47Z"/><path class="cls-1" d="M148.17,37.11a2.75,2.75,0,0,1,1,1,3.31,3.31,0,0,1,0,3,2.68,2.68,0,0,1-1,1,2.92,2.92,0,0,1-1.47.37,2.68,2.68,0,0,1-1.38-.36,2.43,2.43,0,0,1-1-1v3.47h-.56V36.78h.53v1.36a2.63,2.63,0,0,1,1-1,2.79,2.79,0,0,1,1.4-.37A2.93,2.93,0,0,1,148.17,37.11Zm-.3,4.68a2.15,2.15,0,0,0,.83-.86,2.74,2.74,0,0,0,0-2.53,2.28,2.28,0,0,0-.83-.86,2.33,2.33,0,0,0-1.2-.31,2.24,2.24,0,0,0-2,1.17,2.74,2.74,0,0,0,0,2.53,2.15,2.15,0,0,0,.83.86,2.27,2.27,0,0,0,1.19.31A2.33,2.33,0,0,0,147.87,41.79Z"/><path class="cls-1" d="M144.6,44.94h-1v-8.4h1v.85a2.63,2.63,0,0,1,.61-.49,3.17,3.17,0,0,1,3.1,0h0A2.94,2.94,0,0,1,149.4,38a3.4,3.4,0,0,1,.4,1.64,3.46,3.46,0,0,1-.4,1.64,2.9,2.9,0,0,1-1.12,1.13,3.21,3.21,0,0,1-3.08,0,2.55,2.55,0,0,1-.6-.47Zm-.56-.47h.08V40.28l.08.16a3.19,3.19,0,0,1-.09-.77,2.87,2.87,0,0,1,.08-.73l-.09.18V37H144Zm1.66-2.3a2.77,2.77,0,0,0,2.35-.15,2.36,2.36,0,0,0,.93-1,2.82,2.82,0,0,0,.34-1.4,2.77,2.77,0,0,0-.34-1.4,2.36,2.36,0,0,0-.93-1h0a2.75,2.75,0,0,0-2.34-.16,2.8,2.8,0,0,1,2.28.17,2.43,2.43,0,0,1,.92,1,2.85,2.85,0,0,1,.34,1.38,2.81,2.81,0,0,1-.34,1.37,2.43,2.43,0,0,1-.92,1h0A2.74,2.74,0,0,1,145.7,42.17Zm1-4.7a2,2,0,0,0-1.07.28,2,2,0,0,0-.74.77,2.39,2.39,0,0,0-.28,1.15,2.35,2.35,0,0,0,.28,1.14,2,2,0,0,0,.74.78,2.28,2.28,0,0,0,2.15,0h0a1.92,1.92,0,0,0,.74-.78,2.24,2.24,0,0,0,.28-1.14,2.28,2.28,0,0,0-.28-1.15,2,2,0,0,0-.74-.77A2.07,2.07,0,0,0,146.67,37.47Z"/><path class="cls-1" d="M151.37,36.78h.55V41.7L156,36.78h.49v5.78H156V37.63l-4.12,4.93h-.48Z"/><path class="cls-1" d="M156.76,42.8h-1V38.29L152,42.8h-.83V36.54h1v4.51l3.77-4.51h.83Zm-.55-.48h.08V37h-.08Zm-4.49,0h0l4.43-5.3h0Zm-.12,0h.08V37h-.08Z"/><path class="cls-1" d="M159.75,42.22a2.6,2.6,0,0,1-1-1,3.05,3.05,0,0,1-.38-1.51,3.1,3.1,0,0,1,.38-1.53,2.67,2.67,0,0,1,1-1,3.09,3.09,0,0,1,1.5-.37,2.92,2.92,0,0,1,1.27.27,2.32,2.32,0,0,1,.93.8l-.41.29a2.05,2.05,0,0,0-.77-.64,2.31,2.31,0,0,0-1-.22,2.34,2.34,0,0,0-1.21.31,2.08,2.08,0,0,0-.84.85,2.66,2.66,0,0,0-.3,1.28,2.62,2.62,0,0,0,.3,1.27,2.11,2.11,0,0,0,.84.86,2.59,2.59,0,0,0,2.23.09,2.08,2.08,0,0,0,.77-.65l.41.3a2.3,2.3,0,0,1-.93.79,2.92,2.92,0,0,1-1.27.27A2.89,2.89,0,0,1,159.75,42.22Z"/><path class="cls-1" d="M161.25,42.84a3.25,3.25,0,0,1-1.62-.41h0a2.92,2.92,0,0,1-1.13-1.13,3.47,3.47,0,0,1,0-3.27,2.79,2.79,0,0,1,1.13-1.13,3.25,3.25,0,0,1,1.62-.41,3.09,3.09,0,0,1,1.37.3,2.53,2.53,0,0,1,1,.87l.13.19-.79.58-.14-.2a1.83,1.83,0,0,0-.67-.57,2.32,2.32,0,0,0-2,.08,1.92,1.92,0,0,0-.75.77,2.4,2.4,0,0,0-.28,1.16,2.46,2.46,0,0,0,.28,1.16,2,2,0,0,0,.75.76,2.29,2.29,0,0,0,2,.08,1.74,1.74,0,0,0,.67-.57l.14-.2.79.58-.13.19a2.56,2.56,0,0,1-1,.88A3.23,3.23,0,0,1,161.25,42.84Zm0-5.87a2.92,2.92,0,0,0-1.39.34,2.45,2.45,0,0,0-.94.95,3,3,0,0,0,0,2.8,2.37,2.37,0,0,0,1,1h0a2.74,2.74,0,0,0,1.38.34,2.64,2.64,0,0,0,1.17-.25,2.1,2.1,0,0,0,.69-.52l0,0a2,2,0,0,1-.71.53,2.81,2.81,0,0,1-2.45-.09,2.5,2.5,0,0,1-.93-.95,3.09,3.09,0,0,1,0-2.78,2.36,2.36,0,0,1,.93-1,2.78,2.78,0,0,1,2.45-.1,2.2,2.2,0,0,1,.71.54l0,0a2,2,0,0,0-.69-.53A2.79,2.79,0,0,0,161.25,37Z"/><path class="cls-1" d="M170.81,41.79a3.9,3.9,0,0,1-2.5.82v2.1h-.55v-2.1a3.9,3.9,0,0,1-2.5-.82,2.69,2.69,0,0,1-.88-2.13,2.61,2.61,0,0,1,.89-2.11,3.92,3.92,0,0,1,2.49-.82V34.34h.55v2.39a4,4,0,0,1,2.5.82,2.64,2.64,0,0,1,.89,2.11A2.7,2.7,0,0,1,170.81,41.79Zm-5.15-.37a3.31,3.31,0,0,0,2.1.69V37.23a3.37,3.37,0,0,0-2.1.69,2.17,2.17,0,0,0-.73,1.74A2.22,2.22,0,0,0,165.66,41.42Zm4.76,0a2.19,2.19,0,0,0,.73-1.76,2.17,2.17,0,0,0-.73-1.74,3.4,3.4,0,0,0-2.11-.69v4.88A3.29,3.29,0,0,0,170.42,41.42Z"/><path class="cls-1" d="M168.55,44.94h-1v-2.1A4.06,4.06,0,0,1,165.1,42a2.92,2.92,0,0,1-1-2.31,2.86,2.86,0,0,1,1-2.29,4.08,4.08,0,0,1,2.42-.86V34.1h1v2.41a4,4,0,0,1,2.42.86,2.88,2.88,0,0,1,1,2.29A2.92,2.92,0,0,1,171,42a4,4,0,0,1-2.42.87Zm-.55-.47h.07V42.38h.23a3.66,3.66,0,0,0,2.35-.76h0a2.44,2.44,0,0,0,.81-2,2.41,2.41,0,0,0-.81-1.93A3.72,3.72,0,0,0,168.3,37h-.23V34.58H168V37h-.23a3.77,3.77,0,0,0-2.35.76,2.41,2.41,0,0,0-.81,1.93,2.44,2.44,0,0,0,.81,2,3.69,3.69,0,0,0,2.35.76H168Zm.07-2.11V37h.25a3.58,3.58,0,0,1,2.25.75,2.38,2.38,0,0,1,.82,1.92,2.42,2.42,0,0,1-.82,1.94,3.58,3.58,0,0,1-2.25.75Zm.48-4.87v4.37a2.92,2.92,0,0,0,1.71-.62,2,2,0,0,0,.65-1.58,1.92,1.92,0,0,0-.65-1.56A2.91,2.91,0,0,0,168.55,37.49ZM168,42.36h-.25a3.58,3.58,0,0,1-2.25-.75,2.47,2.47,0,0,1-.81-1.94,2.4,2.4,0,0,1,.81-1.92,3.58,3.58,0,0,1,2.25-.75H168Zm-.47-4.87a2.89,2.89,0,0,0-1.71.61,1.92,1.92,0,0,0-.65,1.56,2,2,0,0,0,.65,1.58,2.89,2.89,0,0,0,1.71.62Z"/><path class="cls-1" d="M178.42,39.8h-5a2.3,2.3,0,0,0,.34,1.2,2.22,2.22,0,0,0,.87.82,2.85,2.85,0,0,0,2.28.08,2,2,0,0,0,.8-.61l.32.37a2.45,2.45,0,0,1-.94.7,3.19,3.19,0,0,1-1.24.24,3,3,0,0,1-1.54-.38,2.72,2.72,0,0,1-1.06-1,3,3,0,0,1-.38-1.51,3.12,3.12,0,0,1,.36-1.51,2.64,2.64,0,0,1,1-1,2.86,2.86,0,0,1,2.83,0,2.68,2.68,0,0,1,1,1,3.08,3.08,0,0,1,.36,1.5Zm-3.85-2.31a2.13,2.13,0,0,0-.78.77,2.49,2.49,0,0,0-.33,1.11h4.43a2.41,2.41,0,0,0-.34-1.11,2.18,2.18,0,0,0-.78-.76,2.14,2.14,0,0,0-1.1-.28A2.24,2.24,0,0,0,174.57,37.49Z"/><path class="cls-1" d="M175.88,42.84a3.34,3.34,0,0,1-1.65-.41,2.91,2.91,0,0,1-1.15-1.13,3.14,3.14,0,0,1-.42-1.63,3.39,3.39,0,0,1,.39-1.63,3,3,0,0,1,1.08-1.14,3.11,3.11,0,0,1,3.07,0A2.91,2.91,0,0,1,178.28,38a3.37,3.37,0,0,1,.39,1.62l0,.4H173.7a2.15,2.15,0,0,0,.29.84,2,2,0,0,0,.78.72,2.53,2.53,0,0,0,2.07.08,1.83,1.83,0,0,0,.72-.53l.17-.23.65.74-.13.15a2.86,2.86,0,0,1-1,.77A3.47,3.47,0,0,1,175.88,42.84ZM175.67,37a2.53,2.53,0,0,0-1.29.34,2.41,2.41,0,0,0-.91,1,2.92,2.92,0,0,0-.33,1.4,2.82,2.82,0,0,0,.35,1.4,2.53,2.53,0,0,0,1,1,3.1,3.1,0,0,0,2.56.12,2.27,2.27,0,0,0,.72-.48h0a2.31,2.31,0,0,1-.71.47,3,3,0,0,1-2.48-.09,2.47,2.47,0,0,1-1-.9,2.67,2.67,0,0,1-.37-1.32v-.25h0l0-.21a2.64,2.64,0,0,1,.37-1.22,2.29,2.29,0,0,1,.87-.85h0a2.56,2.56,0,0,1,2.42,0,2.39,2.39,0,0,1,.88.85,2.46,2.46,0,0,1,.36,1.22l0,.2h.05a2.89,2.89,0,0,0-.33-1.31,2.4,2.4,0,0,0-.9-.94A2.53,2.53,0,0,0,175.67,37Zm-1.94,2.16h3.89a1.88,1.88,0,0,0-.27-.74,2,2,0,0,0-.7-.69,2.12,2.12,0,0,0-2,0h0a1.8,1.8,0,0,0-.69.68A1.93,1.93,0,0,0,173.73,39.13Z"/><path class="cls-1" d="M180.23,36.78h.56v2.63h3.92V36.78h.55v5.78h-.55V39.9h-3.92v2.66h-.56Z"/><path class="cls-1" d="M185.5,42.8h-1V40.14H181V42.8h-1V36.54h1v2.63h3.45V36.54h1Zm-.56-.48H185V37h-.08v2.63h-4.39V37h-.08v5.3h.08V39.66h4.39Z"/><path class="cls-1" d="M187.27,34.81h.51l0,2.85h-.42Zm1.8,0h.51l-.05,2.85h-.42Z"/><path class="cls-1" d="M189.77,37.9h-.89l0-3.33h1ZM189.31,35v.77l0-.77ZM188,37.9h-.9L187,34.57h1ZM187.52,35v0Z"/><path class="cls-1" d="M31,46H15A15,15,0,0,1,0,31V15A15,15,0,0,1,15,0H31A15,15,0,0,1,46,15V31A15,15,0,0,1,31,46ZM15,1.48A13.52,13.52,0,0,0,1.48,15V31A13.52,13.52,0,0,0,15,44.52H31A13.52,13.52,0,0,0,44.52,31V15A13.52,13.52,0,0,0,31,1.48Z"/><path class="cls-1" d="M23.21,6.82h-.6a16.18,16.18,0,0,0,0,32.36h.6a16.18,16.18,0,0,0,0-32.36Zm-6,20.79a15.54,15.54,0,0,1-.05-9.06H28.62a15.54,15.54,0,0,1-.05,9.06Zm10.83,1.46a27.61,27.61,0,0,1-5.17,8.31,27.28,27.28,0,0,1-5.17-8.31Zm-10.4-12a27.46,27.46,0,0,1,5.23-8.47,27.44,27.44,0,0,1,5.24,8.47Zm12.47,1.46H37A14.71,14.71,0,0,1,37,27.61H30.11A17.81,17.81,0,0,0,30.73,23,18,18,0,0,0,30.15,18.55Zm6.33-1.46H29.71a27.73,27.73,0,0,0-5.05-8.71A14.75,14.75,0,0,1,36.48,17.09ZM21.15,8.4a27.64,27.64,0,0,0-5,8.69H9.52A14.78,14.78,0,0,1,21.15,8.4ZM9,18.55h6.7a17.27,17.27,0,0,0,.05,9.06H9a14.71,14.71,0,0,1,0-9.06Zm.62,10.52h6.58a27.57,27.57,0,0,0,5,8.53A14.78,14.78,0,0,1,9.59,29.07Zm15.07,8.55a27.92,27.92,0,0,0,5-8.55h6.75A14.76,14.76,0,0,1,24.66,37.62Z"/></svg>