<svg id="Слой_1" data-name="Слой 1" xmlns="http://www.w3.org/2000/svg" viewBox="0 0 46 46"><defs><style>.cls-1{fill:#001355;}</style></defs><title>Монтажная область 4 копия 8</title><rect class="cls-1" x="22.83" y="26.13" width="2.2" height="9.53"/><path class="cls-1" d="M31,0H15A15,15,0,0,0,0,15V31A15,15,0,0,0,15,46H31A15,15,0,0,0,46,31V15A15,15,0,0,0,31,0Zm3.34,17.51H32.24l.31-8H29.33l.31,8H27.53l.31-8H24.62l.31,8H22.82l.32-8H19.91l.31,8h-2.1l.31-8H15.2l.31,8h-2.1l.31-8H12.8V8.86H35v.65H34ZM23.77,5,34.84,7.65H12.69ZM12.17,19H35.58v1.33H12.17Zm28.94,4.66H8.05a13.53,13.53,0,0,0-2.13,7.6A13.38,13.38,0,0,0,8.05,38.1H41.11v1H7.49l-.15-.23A14.41,14.41,0,0,1,4.9,31.25a14.63,14.63,0,0,1,2.44-8.43l.15-.23H41.11Zm-.34,12.94H10.09a9.89,9.89,0,0,1,0-11.38H40.77s-2.55,2.61-2.58,5.41C38.15,33.72,40.77,36.56,40.77,36.56Z"/><path class="cls-1" d="M32.78,30.54A15.58,15.58,0,0,0,31,30a7.63,7.63,0,0,1-1.56-.47.77.77,0,0,1-.51-.73.91.91,0,0,1,.44-.79,2.46,2.46,0,0,1,1.37-.3,5.3,5.3,0,0,1,2.64.75l.68-1.67a5.58,5.58,0,0,0-1.53-.63A7.54,7.54,0,0,0,30.75,26a5.57,5.57,0,0,0-2.21.39,3,3,0,0,0-1.35,1.07,2.65,2.65,0,0,0-.45,1.5,2.25,2.25,0,0,0,.49,1.53,3,3,0,0,0,1.19.83,16.06,16.06,0,0,0,1.79.51c.47.11.84.21,1.12.3a2,2,0,0,1,.68.36.71.71,0,0,1,.27.57.83.83,0,0,1-.45.74,2.68,2.68,0,0,1-1.39.28,5.53,5.53,0,0,1-1.69-.27,5.1,5.1,0,0,1-1.46-.72l-.74,1.66a5.11,5.11,0,0,0,1.69.79,7.56,7.56,0,0,0,2.18.31,5.41,5.41,0,0,0,2.22-.4A3,3,0,0,0,34,34.36a2.57,2.57,0,0,0,.46-1.49,2.18,2.18,0,0,0-.5-1.51A2.87,2.87,0,0,0,32.78,30.54Z"/><polygon class="cls-1" points="16.81 26.13 14.61 26.13 14.61 35.66 21.59 35.66 21.59 33.86 16.81 33.86 16.81 26.13"/></svg>