<svg id="Слой_1" data-name="Слой 1" xmlns="http://www.w3.org/2000/svg" viewBox="0 0 46 46"><defs><style>.cls-1{fill:#001355;}</style></defs><title>Монтажная область 4 копия 9</title><path class="cls-1" d="M31,0H15A15,15,0,0,0,0,15V31A15,15,0,0,0,15,46H31A15,15,0,0,0,46,31V15A15,15,0,0,0,31,0ZM23,2.53l7.45,2.82L26.79,6.77,23,8.25,19,6.77,15.6,5.49ZM9.71,6.89a43.24,43.24,0,0,1,8.79.84h0l.25.1L23,9.4l4-1.56.11,0,.41-.16v.07c.8-.16,1.61-.29,2.43-.4V6.69l.69-.27v.8a44.08,44.08,0,0,1,5.54-.33c.13.37.2,11.94.12,16.22l-1.4.1V8a29.07,29.07,0,0,0-4.25.28l0,4H30l0-3.88c-.82.12-1.64.25-2.43.41V9l-.43.17A9.78,9.78,0,0,1,27,11.09v.06a.74.74,0,0,1,.56.92A4.75,4.75,0,0,1,27,13.84a.61.61,0,0,1-.64.41c0,.28,0,.55-.08.83a1.45,1.45,0,0,1-.48,1.07c-.3.19-.29.41-.26.69,0,.53,0,.55.56.62.2,0,.27.1.25.29a.86.86,0,0,0,.58.93,9.8,9.8,0,0,0,2,.79,7.39,7.39,0,0,1,2.41,1,3.6,3.6,0,0,1,.79.72,2.41,2.41,0,0,1,.33.79c.13.46.24.92.35,1.38a56.06,56.06,0,0,0-9,1.49l-.46.12c-.32-.09-.67-.19-1-.27a62.79,62.79,0,0,0-9.06-1.38l.06-.23a3.14,3.14,0,0,1,1.2-1.9,13.19,13.19,0,0,1,2.82-1.63c.84-.4,1.66-.83,2.48-1.26a.35.35,0,0,0,.13-.2c0-.21,0-.42.07-.65l.86-.12c0-.31-.07-.62-.11-.93a.12.12,0,0,0-.06-.06,2.06,2.06,0,0,1-.9-1.67c0-.14,0-.28,0-.43-.52-.08-.66-.25-.74-.76-.05-.36-.11-.72-.19-1.08a1,1,0,0,1,.32-1.08s.05-.12.05-.18a.49.49,0,0,0-.05-.16,4,4,0,0,1-.39-1.87l-.18-.07v-.3A35.42,35.42,0,0,0,11.13,8c-.14.5-.13,12.61,0,15.2l-1.4-.08Zm6.46,28.47h-7V25.84H11.4v7.73h4.77Zm9.91,0V29.65l-2.81,4.71h-1l-2.79-4.59v5.59H17.41V25.84h1.83l3.56,5.92,3.51-5.92h1.81l0,9.52Zm11.05-1.3a3.07,3.07,0,0,1-1.37,1.07,5.65,5.65,0,0,1-2.22.4,7.92,7.92,0,0,1-2.18-.31,5,5,0,0,1-1.7-.8l.75-1.66a5.25,5.25,0,0,0,1.46.73,5.46,5.46,0,0,0,1.68.27,2.76,2.76,0,0,0,1.39-.28.85.85,0,0,0,.45-.74.73.73,0,0,0-.26-.57,2.09,2.09,0,0,0-.68-.36c-.28-.09-.65-.19-1.13-.3A13.77,13.77,0,0,1,31.54,31a2.89,2.89,0,0,1-1.19-.83,2.24,2.24,0,0,1-.5-1.52,2.62,2.62,0,0,1,.45-1.5,3,3,0,0,1,1.36-1.07,5.39,5.39,0,0,1,2.21-.4,7.54,7.54,0,0,1,1.78.22,5.29,5.29,0,0,1,1.53.63l-.69,1.67a5.3,5.3,0,0,0-2.64-.75,2.45,2.45,0,0,0-1.36.3.91.91,0,0,0-.45.79.77.77,0,0,0,.51.73,8.33,8.33,0,0,0,1.56.47,14,14,0,0,1,1.79.52,2.94,2.94,0,0,1,1.19.81,2.2,2.2,0,0,1,.49,1.51A2.61,2.61,0,0,1,37.13,34.06Z"/></svg>