<svg id="Слой_1" data-name="Слой 1" xmlns="http://www.w3.org/2000/svg" viewBox="0 0 46 46"><defs><style>.cls-1{fill:#001355;}</style></defs><title>Монтажная область 4 копия 11</title><path class="cls-1" d="M30.64,7.22v-.8l-.69.27v.62c-.81.11-1.62.24-2.42.4V7.64l-.41.16-.12,0L23,9.4,18.77,7.83l-.26-.1h0a42.57,42.57,0,0,0-8.8-.84V23.1l1.41.08C11,20.59,11,8.48,11.11,8a35.44,35.44,0,0,1,7.39.79v.3l.18.07A4,4,0,0,0,19.07,11a.35.35,0,0,1,.06.16c0,.06,0,.15-.05.18a.94.94,0,0,0-.32,1.08c.08.36.14.72.19,1.08.07.51.22.68.73.76,0,.15,0,.29.05.43a2,2,0,0,0,.9,1.67s.05,0,.05.06l.12.93-.87.12a6.47,6.47,0,0,1-.07.65.3.3,0,0,1-.12.2c-.83.43-1.65.86-2.48,1.26a13.19,13.19,0,0,0-2.82,1.63,3.2,3.2,0,0,0-1.21,1.9,1.89,1.89,0,0,1-.05.23,62.64,62.64,0,0,1,9.05,1.38c.36.08.7.18,1,.27l.45-.12a56.19,56.19,0,0,1,9-1.49c-.12-.46-.23-.92-.35-1.38a2.43,2.43,0,0,0-.34-.79,3.34,3.34,0,0,0-.78-.72,7.57,7.57,0,0,0-2.41-1,10.14,10.14,0,0,1-2-.79.84.84,0,0,1-.57-.93c0-.19-.05-.27-.25-.29-.53-.07-.52-.09-.57-.62,0-.28,0-.5.26-.69a1.46,1.46,0,0,0,.49-1.07c0-.28.05-.55.08-.83a.61.61,0,0,0,.64-.41,4.74,4.74,0,0,0,.54-1.77.73.73,0,0,0-.55-.92s0,0,0-.06a9.78,9.78,0,0,0,.12-1.94L27.53,9V8.75c.79-.16,1.61-.29,2.43-.41l0,3.88h.69l0-4A28.9,28.9,0,0,1,34.9,8V23.21l1.4-.1c.07-4.28,0-15.85-.12-16.22A44,44,0,0,0,30.64,7.22Z"/><path class="cls-1" d="M31,0H15A15,15,0,0,0,0,15V31A15,15,0,0,0,15,46H31A15,15,0,0,0,46,31V15A15,15,0,0,0,31,0ZM44.52,31A13.52,13.52,0,0,1,31,44.52H15A13.52,13.52,0,0,1,1.48,31V15A13.52,13.52,0,0,1,15,1.48H31A13.52,13.52,0,0,1,44.52,15Z"/><polygon class="cls-1" points="23.01 8.25 26.78 6.77 30.4 5.35 22.95 2.53 15.59 5.49 19.01 6.76 23.01 8.25"/><path class="cls-1" d="M9.18,25.84h2.2v7.73h4.78v1.79h-7Z"/><path class="cls-1" d="M26.07,35.36V29.65l-2.81,4.71h-1l-2.79-4.59v5.59H17.4V25.84h1.82l3.57,5.92,3.51-5.92h1.81l0,9.52Z"/><path class="cls-1" d="M31.34,35.22a5,5,0,0,1-1.69-.8l.75-1.66a5.32,5.32,0,0,0,1.45.73,5.57,5.57,0,0,0,1.69.27,2.76,2.76,0,0,0,1.39-.28.85.85,0,0,0,.45-.74.71.71,0,0,0-.27-.57,1.9,1.9,0,0,0-.68-.36c-.27-.09-.65-.19-1.12-.3A13.31,13.31,0,0,1,31.53,31a2.83,2.83,0,0,1-1.19-.83,2.24,2.24,0,0,1-.5-1.52,2.62,2.62,0,0,1,.45-1.5,3,3,0,0,1,1.35-1.07,5.42,5.42,0,0,1,2.21-.4,7.63,7.63,0,0,1,1.79.22,5.11,5.11,0,0,1,1.52.63l-.68,1.67a5.3,5.3,0,0,0-2.64-.75,2.48,2.48,0,0,0-1.37.3.92.92,0,0,0-.44.79.77.77,0,0,0,.51.73,8.33,8.33,0,0,0,1.56.47,13.31,13.31,0,0,1,1.78.52,2.88,2.88,0,0,1,1.19.81,2.2,2.2,0,0,1,.5,1.51,2.55,2.55,0,0,1-.46,1.49,3,3,0,0,1-1.36,1.07,5.65,5.65,0,0,1-2.22.4A8,8,0,0,1,31.34,35.22Z"/></svg>