<svg id="Слой_1" data-name="Слой 1" xmlns="http://www.w3.org/2000/svg" viewBox="0 0 46 46"><defs><style>.cls-1{fill:#001355;}</style></defs><title>Монтажная область 4 копия 5</title><path class="cls-1" d="M21.65,19.29c0,.62.29,1,.84,1s1.27-.77,1.42-1.72L24.15,17a2.42,2.42,0,0,0-.52-.07A2.18,2.18,0,0,0,21.65,19.29Z"/><path class="cls-1" d="M31,0H15A15,15,0,0,0,0,15V31A15,15,0,0,0,15,46H31A15,15,0,0,0,46,31V15A15,15,0,0,0,31,0ZM11.56,14.12V8.92a.56.56,0,0,1,.54-.57h6.54L23,4.79l4.36,3.56H33.9a.52.52,0,0,1,.21,0,.54.54,0,0,1,.28.31.54.54,0,0,1,0,.22v5.2l4.13,3.37-.32.27-4.73,4V9.33h-21V21.77l-4.81-4-.32-.26Zm14.25,6.41c.72,0,1.62-.87,1.62-2.77a3.63,3.63,0,0,0-4-3.77,4.79,4.79,0,0,0-4.81,5.08,4,4,0,0,0,4.27,4.29,5.83,5.83,0,0,0,2.45-.51l.3.93a7,7,0,0,1-3.08.59,5,5,0,0,1-5.23-5.15A6.11,6.11,0,0,1,23.6,13a4.73,4.73,0,0,1,5.07,4.73c0,2.4-1.37,3.91-3.18,3.91a1.31,1.31,0,0,1-1.44-1.26h0a2.54,2.54,0,0,1-2.18,1.26A1.91,1.91,0,0,1,20,19.48a3.78,3.78,0,0,1,3.94-3.81,5.16,5.16,0,0,1,2,.39l-.5,3.05C25.22,20.07,25.34,20.51,25.81,20.53Zm-19,15.63V18.9l5.35,4.46,5.17,4.31.28.24L6.79,36.63Zm1.66,1.05,10.08-8.14.24-.19,4,3.32a.6.6,0,0,0,.15.09.57.57,0,0,0,.18,0h0a.53.53,0,0,0,.33-.12l3.88-3.27.22.18,10,8.1ZM39.21,19.39V36.63L28.46,28l.29-.24,5.11-4.31,5.35-4.5Z"/></svg>