<svg id="Слой_1" data-name="Слой 1" xmlns="http://www.w3.org/2000/svg" viewBox="0 0 46 46"><defs><style>.cls-1{fill:#001355;}</style></defs><title>Монтажная область 4 копия</title><path class="cls-1" d="M27.3,28.93,23.42,32.2a.53.53,0,0,1-.33.12h0a.57.57,0,0,1-.18,0,.6.6,0,0,1-.15-.09l-4-3.32-.24.19L8.45,37.21h29.1l-10-8.1Z"/><path class="cls-1" d="M12.56,21.77V9.33h21V21.74l4.73-4,.32-.27-4.13-3.37V8.92a.54.54,0,0,0,0-.22.54.54,0,0,0-.28-.31.52.52,0,0,0-.21,0H27.36L23,4.79,18.64,8.35H12.1a.56.56,0,0,0-.54.57v5.2L7.43,17.49l.32.26Z"/><polygon class="cls-1" points="17.31 27.67 12.14 23.36 6.79 18.9 6.79 19.38 6.79 36.16 6.79 36.63 17.59 27.91 17.31 27.67"/><polygon class="cls-1" points="33.86 23.4 28.75 27.71 28.46 27.95 39.21 36.63 39.21 36.16 39.21 19.39 39.21 18.9 33.86 23.4"/><path class="cls-1" d="M25.89,16.06a5.16,5.16,0,0,0-2-.39A3.78,3.78,0,0,0,20,19.48a1.9,1.9,0,0,0,1.87,2.14A2.53,2.53,0,0,0,24,20.37h0a1.3,1.3,0,0,0,1.44,1.25c1.81,0,3.18-1.5,3.18-3.9A4.73,4.73,0,0,0,23.6,13a6.11,6.11,0,0,0-6.27,6.23,5,5,0,0,0,5.23,5.15,7,7,0,0,0,3.08-.59l-.3-.93a5.83,5.83,0,0,1-2.45.51,4,4,0,0,1-4.27-4.29A4.79,4.79,0,0,1,23.43,14a3.63,3.63,0,0,1,4,3.77c0,1.9-.9,2.8-1.62,2.77-.47,0-.59-.46-.42-1.42Zm-2,2.52c-.15,1-.8,1.72-1.42,1.72s-.84-.39-.84-1a2.18,2.18,0,0,1,2-2.33,2.42,2.42,0,0,1,.52.07Z"/><path class="cls-1" d="M31,46H15A15,15,0,0,1,0,31V15A15,15,0,0,1,15,0H31A15,15,0,0,1,46,15V31A15,15,0,0,1,31,46ZM15,1.48A13.52,13.52,0,0,0,1.48,15V31A13.52,13.52,0,0,0,15,44.52H31A13.52,13.52,0,0,0,44.52,31V15A13.52,13.52,0,0,0,31,1.48Z"/></svg>