<svg id="Слой_1" data-name="Слой 1" xmlns="http://www.w3.org/2000/svg" viewBox="0 0 46 46"><defs><style>.cls-1{fill:#001355;}</style></defs><title>Монтажная область 4 копия 10</title><polygon class="cls-1" points="34.95 8.86 12.8 8.86 12.8 9.51 13.72 9.51 13.41 17.51 15.51 17.51 15.2 9.51 18.43 9.51 18.12 17.51 20.22 17.51 19.91 9.51 23.14 9.51 22.82 17.51 24.93 17.51 24.62 9.51 27.84 9.51 27.53 17.51 29.64 17.51 29.33 9.51 32.55 9.51 32.24 17.51 34.35 17.51 34.03 9.51 34.95 9.51 34.95 8.86"/><rect class="cls-1" x="12.17" y="18.96" width="23.41" height="1.34"/><polygon class="cls-1" points="23.77 5.04 12.69 7.65 34.84 7.65 23.77 5.04"/><path class="cls-1" d="M10.09,25.18a9.89,9.89,0,0,0,0,11.38H40.77s-2.62-2.84-2.58-6c0-2.8,2.58-5.41,2.58-5.41Zm11.5,10.48h-7V26.13h2.2v7.73h4.78Zm3.45,0H22.83V26.13H25Zm9-1.3a3,3,0,0,1-1.37,1.06,5.41,5.41,0,0,1-2.22.4,7.56,7.56,0,0,1-2.18-.31,5.11,5.11,0,0,1-1.69-.79l.74-1.66a5.1,5.1,0,0,0,1.46.72,5.53,5.53,0,0,0,1.69.27,2.68,2.68,0,0,0,1.39-.28.83.83,0,0,0,.45-.74.71.71,0,0,0-.27-.57,2,2,0,0,0-.68-.36c-.28-.09-.65-.19-1.12-.3a16.06,16.06,0,0,1-1.79-.51,2.89,2.89,0,0,1-1.19-.83,2.25,2.25,0,0,1-.49-1.53,2.65,2.65,0,0,1,.45-1.5,3,3,0,0,1,1.35-1.07A5.57,5.57,0,0,1,30.75,26a7.54,7.54,0,0,1,1.78.21,5.58,5.58,0,0,1,1.53.63l-.68,1.67a5.3,5.3,0,0,0-2.64-.75,2.46,2.46,0,0,0-1.37.3.91.91,0,0,0-.44.79.77.77,0,0,0,.51.73A7.63,7.63,0,0,0,31,30a15.58,15.58,0,0,1,1.78.52,2.87,2.87,0,0,1,1.19.82,2.18,2.18,0,0,1,.5,1.51A2.57,2.57,0,0,1,34,34.36Z"/><path class="cls-1" d="M7.34,22.82A14.63,14.63,0,0,0,4.9,31.25a14.41,14.41,0,0,0,2.44,7.64l.15.23H41.11v-1H8.05a13.38,13.38,0,0,1-2.13-6.88,13.53,13.53,0,0,1,2.13-7.6H41.11v-1H7.49Z"/><path class="cls-1" d="M31,0H15A15,15,0,0,0,0,15V31A15,15,0,0,0,15,46H31A15,15,0,0,0,46,31V15A15,15,0,0,0,31,0ZM44.52,31A13.52,13.52,0,0,1,31,44.52H15A13.52,13.52,0,0,1,1.48,31V15A13.52,13.52,0,0,1,15,1.48H31A13.52,13.52,0,0,1,44.52,15Z"/></svg>